# xmcd CD database file
#
# Track frame offsets:
#	150
#	15415
#	37492
#	51685
#	73838
#	89608
#	107080
#	131937
#	152639
#	167155
#	213670
#	236895
#
# Disc length: 3330 seconds
#
# Revision: 0
# Processed by: cddbd v1.5.2PL0 Copyright (c) Steve Scherf et al.
# Submitted via: CDex 1.80
#
DISCID=bd0d000c
DTITLE=Northwest High School Jazz Ensemble 1996-1997 - Time Flies
DYEAR=1900
DGENRE=Jazz
TTITLE0=It Had To Be You (Isham Jones arr. Frank Mantooth)
TTITLE1=I Watched Her Walk Away (Russ Freeman arr. George Stone)
TTITLE2=Emily (Johnny Mercer and Johnny Mandel arr. Dave Wolpe)
TTITLE3=No Deposit - No Return (Kris Berg)
TTITLE4=Four Brothers (Jimmy Giuffre arr. Peter Blair)
TTITLE5=Morocco (Russ Freeman arr. Gordon Goodwin)
TTITLE6=It Might As Well Be Spring (Richard Rodgers arr. George Stone)
TTITLE7=Double Helix (Jack Cooper)
TTITLE8=A String of Pearls (Jerry Gray, arr. Bob Lowden)
TTITLE9=Desolation Blues (Ian McDougall)
TTITLE10=Coconut Champagne (Denis DiBlasio, adapted Bob Lowden)
TTITLE11=Time Flies (Steve Spiegl)
EXTD=
EXTT0=
EXTT1=
EXTT2=
EXTT3=
EXTT4=
EXTT5=
EXTT6=
EXTT7=
EXTT8=
EXTT9=
EXTT10=
EXTT11=
PLAYORDER=
